# xmcd
#
# Track frame offsets:
#	150
#	15557
#	28789
#	39610
#	49761
#	58412
#	71859
#	84583
#	96702
#	113170
#	124011
#	140382
#	153210
#	163135
#	172101
#	184850
#	195290
#	207602
#	221921
#	237580
#
# Disc length: 3307 seconds
#
# Revision: 0
# Processed by: cddbd v1.5.1PL0 Copyright (c) Steve Scherf et al.
# Submitted via: audiograbber 1.81.02
#
DISCID=340ce914
DTITLE=Delfino Ordaz - Guitarra Campirana
DYEAR=2002
DGENRE=Guitar
TTITLE0=Cancion Mixteca
TTITLE1=Celosa
TTITLE2=Pobre corazón
TTITLE3=La Palma
TTITLE4=Traigo un amor
TTITLE5=Por un amor
TTITLE6=Veneno malevo
TTITLE7=Cuando dos almas
TTITLE8=A la orilla de un palmar
TTITLE9=Soy un pobre venadito
TTITLE10=Dos arbolitos
TTITLE11=Aburrido me voy
TTITLE12=Madrigal
TTITLE13=La mancornadora
TTITLE14=Golondrina de ojos negros
TTITLE15=Aquel amor
TTITLE16=La barca de Guaymas
TTITLE17=Amor de los dos
TTITLE18=Solo tú
TTITLE19=Momentos inolvidables
EXTD=
EXTT0=
EXTT1=
EXTT2=
EXTT3=
EXTT4=
EXTT5=
EXTT6=
EXTT7=
EXTT8=
EXTT9=
EXTT10=
EXTT11=
EXTT12=
EXTT13=
EXTT14=
EXTT15=
EXTT16=
EXTT17=
EXTT18=
EXTT19=
PLAYORDER=
